<svg xmlns="http://www.w3.org/2000/svg" xmlns:xlink="http://www.w3.org/1999/xlink" contentStyleType="text/css" data-diagram-type="SEQUENCE" height="952px" preserveAspectRatio="none" style="width:857px;height:952px;background:#FFFFFF;" version="1.1" viewBox="0 0 857 952" width="857px" zoomAndPan="magnify"><defs/><g><g><title>User</title><rect fill="#000000" fill-opacity="0.00000" height="790.3203" width="8" x="19.9551" y="81.2969"/><line style="stroke:#181818;stroke-width:0.5;stroke-dasharray:5.0,5.0;" x1="23" x2="23" y1="81.2969" y2="871.6172"/></g><g><title>Frontend</title><rect fill="#000000" fill-opacity="0.00000" height="790.3203" width="8" x="218.8457" y="81.2969"/><line style="stroke:#181818;stroke-width:0.5;stroke-dasharray:5.0,5.0;" x1="222.291" x2="222.291" y1="81.2969" y2="871.6172"/></g><g><title>FastAPI</title><rect fill="#000000" fill-opacity="0.00000" height="790.3203" width="8" x="423.8237" y="81.2969"/><line style="stroke:#181818;stroke-width:0.5;stroke-dasharray:5.0,5.0;" x1="427.6431" x2="427.6431" y1="81.2969" y2="871.6172"/></g><g><title>Database</title><rect fill="#000000" fill-opacity="0.00000" height="790.3203" width="8" x="581.6006" y="81.2969"/><line style="stroke:#181818;stroke-width:0.5;stroke-dasharray:5.0,5.0;" x1="584.7813" x2="584.7813" y1="81.2969" y2="871.6172"/></g><g><title>Vector DB</title><rect fill="#000000" fill-opacity="0.00000" height="790.3203" width="8" x="689.6655" y="81.2969"/><line style="stroke:#181818;stroke-width:0.5;stroke-dasharray:5.0,5.0;" x1="693.4199" x2="693.4199" y1="81.2969" y2="871.6172"/></g><g><title>LLM Service</title><rect fill="#000000" fill-opacity="0.00000" height="790.3203" width="8" x="792.8462" y="81.2969"/><line style="stroke:#181818;stroke-width:0.5;stroke-dasharray:5.0,5.0;" x1="795.9111" x2="795.9111" y1="81.2969" y2="871.6172"/></g><g class="participant participant-head" data-participant="User"><text fill="#000000" font-family="sans-serif" font-size="14" lengthAdjust="spacing" textLength="31.9102" x="5" y="77.9951">User</text><ellipse cx="23.9551" cy="13.5" fill="#E2E2F0" rx="8" ry="8" style="stroke:#181818;stroke-width:0.5;"/><path d="M23.9551,21.5 L23.9551,48.5 M10.9551,29.5 L36.9551,29.5 M23.9551,48.5 L10.9551,63.5 M23.9551,48.5 L36.9551,63.5 " fill="none" style="stroke:#181818;stroke-width:0.5;"/></g><g class="participant participant-tail" data-participant="User"><text fill="#000000" font-family="sans-serif" font-size="14" lengthAdjust="spacing" textLength="31.9102" x="5" y="883.6123">User</text><ellipse cx="23.9551" cy="895.4141" fill="#E2E2F0" rx="8" ry="8" style="stroke:#181818;stroke-width:0.5;"/><path d="M23.9551,903.4141 L23.9551,930.4141 M10.9551,911.4141 L36.9551,911.4141 M23.9551,930.4141 L10.9551,945.4141 M23.9551,930.4141 L36.9551,945.4141 " fill="none" style="stroke:#181818;stroke-width:0.5;"/></g><g class="participant participant-head" data-participant="Frontend"><rect fill="#E2E2F0" height="46.5938" rx="2.5" ry="2.5" style="stroke:#181818;stroke-width:0.5;" width="77.1094" x="184.291" y="33.7031"/><text fill="#000000" font-family="sans-serif" font-size="14" lengthAdjust="spacing" textLength="63.1094" x="191.291" y="53.6982">Frontend</text><text fill="#000000" font-family="sans-serif" font-size="14" lengthAdjust="spacing" textLength="40.5303" x="202.5806" y="69.9951">Client</text></g><g class="participant participant-tail" data-participant="Frontend"><rect fill="#E2E2F0" height="46.5938" rx="2.5" ry="2.5" style="stroke:#181818;stroke-width:0.5;" width="77.1094" x="184.291" y="870.6172"/><text fill="#000000" font-family="sans-serif" font-size="14" lengthAdjust="spacing" textLength="63.1094" x="191.291" y="890.6123">Frontend</text><text fill="#000000" font-family="sans-serif" font-size="14" lengthAdjust="spacing" textLength="40.5303" x="202.5806" y="906.9092">Client</text></g><g class="participant participant-head" data-participant="Backend"><rect fill="#E2E2F0" height="46.5938" rx="2.5" ry="2.5" style="stroke:#181818;stroke-width:0.5;" width="74.3613" x="390.6431" y="33.7031"/><text fill="#000000" font-family="sans-serif" font-size="14" lengthAdjust="spacing" textLength="51.5635" x="402.042" y="53.6982">FastAPI</text><text fill="#000000" font-family="sans-serif" font-size="14" lengthAdjust="spacing" textLength="60.3613" x="397.6431" y="69.9951">Backend</text></g><g class="participant participant-tail" data-participant="Backend"><rect fill="#E2E2F0" height="46.5938" rx="2.5" ry="2.5" style="stroke:#181818;stroke-width:0.5;" width="74.3613" x="390.6431" y="870.6172"/><text fill="#000000" font-family="sans-serif" font-size="14" lengthAdjust="spacing" textLength="51.5635" x="402.042" y="890.6123">FastAPI</text><text fill="#000000" font-family="sans-serif" font-size="14" lengthAdjust="spacing" textLength="60.3613" x="397.6431" y="906.9092">Backend</text></g><g class="participant participant-head" data-participant="DB"><rect fill="#E2E2F0" height="46.5938" rx="2.5" ry="2.5" style="stroke:#181818;stroke-width:0.5;" width="107.6387" x="531.7813" y="33.7031"/><text fill="#000000" font-family="sans-serif" font-size="14" lengthAdjust="spacing" textLength="66.8008" x="552.2002" y="53.6982">Database</text><text fill="#000000" font-family="sans-serif" font-size="14" lengthAdjust="spacing" textLength="93.6387" x="538.7813" y="69.9951">(PostGreSQL)</text></g><g class="participant participant-tail" data-participant="DB"><rect fill="#E2E2F0" height="46.5938" rx="2.5" ry="2.5" style="stroke:#181818;stroke-width:0.5;" width="107.6387" x="531.7813" y="870.6172"/><text fill="#000000" font-family="sans-serif" font-size="14" lengthAdjust="spacing" textLength="66.8008" x="552.2002" y="890.6123">Database</text><text fill="#000000" font-family="sans-serif" font-size="14" lengthAdjust="spacing" textLength="93.6387" x="538.7813" y="906.9092">(PostGreSQL)</text></g><g class="participant participant-head" data-participant="VectorDB"><rect fill="#E2E2F0" height="46.5938" rx="2.5" ry="2.5" style="stroke:#181818;stroke-width:0.5;" width="88.4912" x="649.4199" y="33.7031"/><text fill="#000000" font-family="sans-serif" font-size="14" lengthAdjust="spacing" textLength="70.5332" x="658.3989" y="53.6982">Vector DB</text><text fill="#000000" font-family="sans-serif" font-size="14" lengthAdjust="spacing" textLength="74.4912" x="656.4199" y="69.9951">(Pinecone)</text></g><g class="participant participant-tail" data-participant="VectorDB"><rect fill="#E2E2F0" height="46.5938" rx="2.5" ry="2.5" style="stroke:#181818;stroke-width:0.5;" width="88.4912" x="649.4199" y="870.6172"/><text fill="#000000" font-family="sans-serif" font-size="14" lengthAdjust="spacing" textLength="70.5332" x="658.3989" y="890.6123">Vector DB</text><text fill="#000000" font-family="sans-serif" font-size="14" lengthAdjust="spacing" textLength="74.4912" x="656.4199" y="906.9092">(Pinecone)</text></g><g class="participant participant-head" data-participant="LLM"><rect fill="#E2E2F0" height="46.5938" rx="2.5" ry="2.5" style="stroke:#181818;stroke-width:0.5;" width="97.8701" x="747.9111" y="33.7031"/><text fill="#000000" font-family="sans-serif" font-size="14" lengthAdjust="spacing" textLength="83.8701" x="754.9111" y="53.6982">LLM Service</text><text fill="#000000" font-family="sans-serif" font-size="14" lengthAdjust="spacing" textLength="78.5313" x="757.5806" y="69.9951">(Anthropic)</text></g><g class="participant participant-tail" data-participant="LLM"><rect fill="#E2E2F0" height="46.5938" rx="2.5" ry="2.5" style="stroke:#181818;stroke-width:0.5;" width="97.8701" x="747.9111" y="870.6172"/><text fill="#000000" font-family="sans-serif" font-size="14" lengthAdjust="spacing" textLength="83.8701" x="754.9111" y="890.6123">LLM Service</text><text fill="#000000" font-family="sans-serif" font-size="14" lengthAdjust="spacing" textLength="78.5313" x="757.5806" y="906.9092">(Anthropic)</text></g><rect fill="#EEEEEE" height="3" style="stroke:#EEEEEE;stroke-width:1;" width="850.7813" x="0" y="111.8633"/><line style="stroke:#000000;stroke-width:1;" x1="0" x2="850.7813" y1="111.8633" y2="111.8633"/><line style="stroke:#000000;stroke-width:1;" x1="0" x2="850.7813" y1="114.8633" y2="114.8633"/><rect fill="#EEEEEE" height="23.1328" style="stroke:#000000;stroke-width:2;" width="166.1914" x="342.2949" y="101.2969"/><text fill="#000000" font-family="sans-serif" font-size="13" font-weight="bold" lengthAdjust="spacing" textLength="147.6655" x="348.2949" y="117.3638">Authentication Flow</text><g class="message" data-participant-1="User" data-participant-2="Frontend"><polygon fill="#181818" points="210.8457,151.5625,220.8457,155.5625,210.8457,159.5625,214.8457,155.5625" style="stroke:#181818;stroke-width:1;"/><line style="stroke:#181818;stroke-width:1;" x1="23.9551" x2="216.8457" y1="155.5625" y2="155.5625"/><text fill="#000000" font-family="sans-serif" font-size="13" lengthAdjust="spacing" textLength="92.8218" x="30.9551" y="150.4966">Login Request</text></g><g class="message" data-participant-1="Frontend" data-participant-2="Backend"><polygon fill="#181818" points="415.8237,180.6953,425.8237,184.6953,415.8237,188.6953,419.8237,184.6953" style="stroke:#181818;stroke-width:1;"/><line style="stroke:#181818;stroke-width:1;" x1="222.8457" x2="421.8237" y1="184.6953" y2="184.6953"/><text fill="#000000" font-family="sans-serif" font-size="13" lengthAdjust="spacing" textLength="113.5151" x="229.8457" y="179.6294">POST /auth/token</text></g><g class="message" data-participant-1="Backend" data-participant-2="Frontend"><polygon fill="#181818" points="233.8457,209.8281,223.8457,213.8281,233.8457,217.8281,229.8457,213.8281" style="stroke:#181818;stroke-width:1;"/><line style="stroke:#181818;stroke-width:1;stroke-dasharray:2.0,2.0;" x1="227.8457" x2="426.8237" y1="213.8281" y2="213.8281"/><text fill="#000000" font-family="sans-serif" font-size="13" lengthAdjust="spacing" textLength="68.4214" x="239.8457" y="208.7622">JWT Token</text></g><g class="message" data-participant-1="Frontend" data-participant-2="User"><polygon fill="#181818" points="34.9551,238.9609,24.9551,242.9609,34.9551,246.9609,30.9551,242.9609" style="stroke:#181818;stroke-width:1;"/><line style="stroke:#181818;stroke-width:1;stroke-dasharray:2.0,2.0;" x1="28.9551" x2="221.8457" y1="242.9609" y2="242.9609"/><text fill="#000000" font-family="sans-serif" font-size="13" lengthAdjust="spacing" textLength="91.7617" x="40.9551" y="237.895">Login Success</text></g><rect fill="#EEEEEE" height="3" style="stroke:#EEEEEE;stroke-width:1;" width="850.7813" x="0" y="271.5273"/><line style="stroke:#000000;stroke-width:1;" x1="0" x2="850.7813" y1="271.5273" y2="271.5273"/><line style="stroke:#000000;stroke-width:1;" x1="0" x2="850.7813" y1="274.5273" y2="274.5273"/><rect fill="#EEEEEE" height="23.1328" style="stroke:#000000;stroke-width:2;" width="151.9346" x="349.4233" y="260.9609"/><text fill="#000000" font-family="sans-serif" font-size="13" font-weight="bold" lengthAdjust="spacing" textLength="133.4087" x="355.4233" y="277.0278">Chat Session Flow</text><g class="message" data-participant-1="User" data-participant-2="Frontend"><polygon fill="#181818" points="210.8457,311.2266,220.8457,315.2266,210.8457,319.2266,214.8457,315.2266" style="stroke:#181818;stroke-width:1;"/><line style="stroke:#181818;stroke-width:1;" x1="23.9551" x2="216.8457" y1="315.2266" y2="315.2266"/><text fill="#000000" font-family="sans-serif" font-size="13" lengthAdjust="spacing" textLength="93.8501" x="30.9551" y="310.1606">Send Message</text></g><g class="message" data-participant-1="Frontend" data-participant-2="Backend"><polygon fill="#181818" points="415.8237,340.3594,425.8237,344.3594,415.8237,348.3594,419.8237,344.3594" style="stroke:#181818;stroke-width:1;"/><line style="stroke:#181818;stroke-width:1;" x1="222.8457" x2="421.8237" y1="344.3594" y2="344.3594"/><text fill="#000000" font-family="sans-serif" font-size="13" lengthAdjust="spacing" textLength="148.1353" x="229.8457" y="339.2935">POST /chat/completion</text></g><g class="message" data-participant-1="Backend" data-participant-2="DB"><polygon fill="#181818" points="573.6006,369.4922,583.6006,373.4922,573.6006,377.4922,577.6006,373.4922" style="stroke:#181818;stroke-width:1;"/><line style="stroke:#181818;stroke-width:1;" x1="427.8237" x2="579.6006" y1="373.4922" y2="373.4922"/><text fill="#000000" font-family="sans-serif" font-size="13" lengthAdjust="spacing" textLength="97.2144" x="434.8237" y="368.4263">Create Session</text></g><g class="message" data-participant-1="DB" data-participant-2="Backend"><polygon fill="#181818" points="438.8237,398.625,428.8237,402.625,438.8237,406.625,434.8237,402.625" style="stroke:#181818;stroke-width:1;"/><line style="stroke:#181818;stroke-width:1;stroke-dasharray:2.0,2.0;" x1="432.8237" x2="584.6006" y1="402.625" y2="402.625"/><text fill="#000000" font-family="sans-serif" font-size="13" lengthAdjust="spacing" textLength="67.5771" x="444.8237" y="397.5591">Session ID</text></g><g class="message" data-participant-1="Backend" data-participant-2="VectorDB"><polygon fill="#181818" points="681.6655,427.7578,691.6655,431.7578,681.6655,435.7578,685.6655,431.7578" style="stroke:#181818;stroke-width:1;"/><line style="stroke:#181818;stroke-width:1;" x1="427.8237" x2="687.6655" y1="431.7578" y2="431.7578"/><text fill="#000000" font-family="sans-serif" font-size="13" lengthAdjust="spacing" textLength="171.8311" x="434.8237" y="426.6919">Retrieve Relevant Context</text></g><g class="message" data-participant-1="VectorDB" data-participant-2="Backend"><polygon fill="#181818" points="438.8237,456.8906,428.8237,460.8906,438.8237,464.8906,434.8237,460.8906" style="stroke:#181818;stroke-width:1;"/><line style="stroke:#181818;stroke-width:1;stroke-dasharray:2.0,2.0;" x1="432.8237" x2="692.6655" y1="460.8906" y2="460.8906"/><text fill="#000000" font-family="sans-serif" font-size="13" lengthAdjust="spacing" textLength="129.4097" x="444.8237" y="455.8247">Context Documents</text></g><g class="message" data-participant-1="Backend" data-participant-2="LLM"><polygon fill="#181818" points="784.8462,486.0234,794.8462,490.0234,784.8462,494.0234,788.8462,490.0234" style="stroke:#181818;stroke-width:1;"/><line style="stroke:#181818;stroke-width:1;" x1="427.8237" x2="790.8462" y1="490.0234" y2="490.0234"/><text fill="#000000" font-family="sans-serif" font-size="13" lengthAdjust="spacing" textLength="251.9639" x="434.8237" y="484.9575">Generate Response (Query + Context)</text></g><g class="message" data-participant-1="LLM" data-participant-2="Backend"><polygon fill="#181818" points="438.8237,515.1563,428.8237,519.1563,438.8237,523.1563,434.8237,519.1563" style="stroke:#181818;stroke-width:1;"/><line style="stroke:#181818;stroke-width:1;stroke-dasharray:2.0,2.0;" x1="432.8237" x2="795.8462" y1="519.1563" y2="519.1563"/><text fill="#000000" font-family="sans-serif" font-size="13" lengthAdjust="spacing" textLength="136.1191" x="444.8237" y="514.0903">Generated Response</text></g><g class="message" data-participant-1="Backend" data-participant-2="DB"><polygon fill="#181818" points="573.6006,544.2891,583.6006,548.2891,573.6006,552.2891,577.6006,548.2891" style="stroke:#181818;stroke-width:1;"/><line style="stroke:#181818;stroke-width:1;" x1="427.8237" x2="579.6006" y1="548.2891" y2="548.2891"/><text fill="#000000" font-family="sans-serif" font-size="13" lengthAdjust="spacing" textLength="124.6489" x="434.8237" y="543.2231">Store Message Pair</text></g><g class="message" data-participant-1="DB" data-participant-2="Backend"><polygon fill="#181818" points="438.8237,573.4219,428.8237,577.4219,438.8237,581.4219,434.8237,577.4219" style="stroke:#181818;stroke-width:1;"/><line style="stroke:#181818;stroke-width:1;stroke-dasharray:2.0,2.0;" x1="432.8237" x2="584.6006" y1="577.4219" y2="577.4219"/><text fill="#000000" font-family="sans-serif" font-size="13" lengthAdjust="spacing" textLength="84.335" x="444.8237" y="572.356">Confirmation</text></g><g class="message" data-participant-1="Backend" data-participant-2="Frontend"><polygon fill="#181818" points="233.8457,602.5547,223.8457,606.5547,233.8457,610.5547,229.8457,606.5547" style="stroke:#181818;stroke-width:1;"/><line style="stroke:#181818;stroke-width:1;stroke-dasharray:2.0,2.0;" x1="227.8457" x2="426.8237" y1="606.5547" y2="606.5547"/><text fill="#000000" font-family="sans-serif" font-size="13" lengthAdjust="spacing" textLength="180.978" x="239.8457" y="601.4888">Session Details + Response</text></g><g class="message" data-participant-1="Frontend" data-participant-2="User"><polygon fill="#181818" points="34.9551,631.6875,24.9551,635.6875,34.9551,639.6875,30.9551,635.6875" style="stroke:#181818;stroke-width:1;"/><line style="stroke:#181818;stroke-width:1;stroke-dasharray:2.0,2.0;" x1="28.9551" x2="221.8457" y1="635.6875" y2="635.6875"/><text fill="#000000" font-family="sans-serif" font-size="13" lengthAdjust="spacing" textLength="174.8906" x="40.9551" y="630.6216">Chat Interface + Response</text></g><rect fill="#EEEEEE" height="3" style="stroke:#EEEEEE;stroke-width:1;" width="850.7813" x="0" y="664.2539"/><line style="stroke:#000000;stroke-width:1;" x1="0" x2="850.7813" y1="664.2539" y2="664.2539"/><line style="stroke:#000000;stroke-width:1;" x1="0" x2="850.7813" y1="667.2539" y2="667.2539"/><rect fill="#EEEEEE" height="23.1328" style="stroke:#000000;stroke-width:2;" width="171.2568" x="339.7622" y="653.6875"/><text fill="#000000" font-family="sans-serif" font-size="13" font-weight="bold" lengthAdjust="spacing" textLength="152.731" x="345.7622" y="669.7544">Session History Flow</text><g class="message" data-participant-1="User" data-participant-2="Frontend"><polygon fill="#181818" points="210.8457,703.9531,220.8457,707.9531,210.8457,711.9531,214.8457,707.9531" style="stroke:#181818;stroke-width:1;"/><line style="stroke:#181818;stroke-width:1;" x1="23.9551" x2="216.8457" y1="707.9531" y2="707.9531"/><text fill="#000000" font-family="sans-serif" font-size="13" lengthAdjust="spacing" textLength="103.7715" x="30.9551" y="702.8872">Request History</text></g><g class="message" data-participant-1="Frontend" data-participant-2="Backend"><polygon fill="#181818" points="415.8237,733.0859,425.8237,737.0859,415.8237,741.0859,419.8237,737.0859" style="stroke:#181818;stroke-width:1;"/><line style="stroke:#181818;stroke-width:1;" x1="222.8457" x2="421.8237" y1="737.0859" y2="737.0859"/><text fill="#000000" font-family="sans-serif" font-size="13" lengthAdjust="spacing" textLength="89.6353" x="229.8457" y="732.02">GET /sessions</text></g><g class="message" data-participant-1="Backend" data-participant-2="DB"><polygon fill="#181818" points="573.6006,762.2188,583.6006,766.2188,573.6006,770.2188,577.6006,766.2188" style="stroke:#181818;stroke-width:1;"/><line style="stroke:#181818;stroke-width:1;" x1="427.8237" x2="579.6006" y1="766.2188" y2="766.2188"/><text fill="#000000" font-family="sans-serif" font-size="13" lengthAdjust="spacing" textLength="133.7769" x="434.8237" y="761.1528">Query User Sessions</text></g><g class="message" data-participant-1="DB" data-participant-2="Backend"><polygon fill="#181818" points="438.8237,791.3516,428.8237,795.3516,438.8237,799.3516,434.8237,795.3516" style="stroke:#181818;stroke-width:1;"/><line style="stroke:#181818;stroke-width:1;stroke-dasharray:2.0,2.0;" x1="432.8237" x2="584.6006" y1="795.3516" y2="795.3516"/><text fill="#000000" font-family="sans-serif" font-size="13" lengthAdjust="spacing" textLength="76.4575" x="444.8237" y="790.2856">Session List</text></g><g class="message" data-participant-1="Backend" data-participant-2="Frontend"><polygon fill="#181818" points="233.8457,820.4844,223.8457,824.4844,233.8457,828.4844,229.8457,824.4844" style="stroke:#181818;stroke-width:1;"/><line style="stroke:#181818;stroke-width:1;stroke-dasharray:2.0,2.0;" x1="227.8457" x2="426.8237" y1="824.4844" y2="824.4844"/><text fill="#000000" font-family="sans-serif" font-size="13" lengthAdjust="spacing" textLength="84.7729" x="239.8457" y="819.4185">Session Data</text></g><g class="message" data-participant-1="Frontend" data-participant-2="User"><polygon fill="#181818" points="34.9551,849.6172,24.9551,853.6172,34.9551,857.6172,30.9551,853.6172" style="stroke:#181818;stroke-width:1;"/><line style="stroke:#181818;stroke-width:1;stroke-dasharray:2.0,2.0;" x1="28.9551" x2="221.8457" y1="853.6172" y2="853.6172"/><text fill="#000000" font-family="sans-serif" font-size="13" lengthAdjust="spacing" textLength="98.2998" x="40.9551" y="848.5513">Display History</text></g><!--SRC=[XLF1Rjim3BthAuYUMWn5xWPI88dNB8MBfNMsNdBXLBOHwaYUA6VBtu-oepGsilOca8-Fx_7Pg8Fpy8F9gnfzCDhKQ0DSt7fd0zddjPrLXcou06H8nG4KEKoMYxMTedwJRWizlFl870F-GgQrlLmw3dDFvKDnrUBpQH_warfX-JHYZINjB7N8hZF45yKzbEHtHaVsYGqRxsgZkn5fAZKUmwG96_5YD0RZBDnMxW-Cnqf5-t1zS_INGU5UZOL7-jqG1vNg4NCmbi7oUxc24GhbA3WfgKC7hdjCTqyhMBNzTnO1n9LfJTbeJSojnDa6WnXX_aHW6Odk1OUlz94-BNmZxRPrHT7pkyWRkMq6CqyOA2rK-RGLT-H8GXRvwM1A89C31MzeH_AeQ1U3c4KbVuDAc3xVeGkvqyrMak1JMaafWpbPyb7I8t7jB1DSFZJaz_0b3L-fc7MFDWqz7wU6FaiHG-bUi4JZrHbjByPliN-cmT6xS-GKq5GicexxpeJRHhcGgdz1JQVW67JY-cPOjEq_olhm6IRe-RZdNoLjxaXvQByxOSjS9iZ_iYvaosV-vJy-vpWtN5UuJqB_0G00]--></g></svg>